<svg width="240" height="60" viewBox="0 0 240 60" fill="none" xmlns="http://www.w3.org/2000/svg">
  <g>
    <path d="M45 15L30 5L15 15V35L30 45L45 35V15Z" fill="#2563EB"/>
    <path d="M30 5L15 15V35L30 45V25L45 15V35L30 45L45 35V15L30 5Z" fill="#1E40AF"/>
    <path d="M30 5V25L15 15L30 5Z" fill="#60A5FA"/>
    <path d="M30 25L30 45L15 35V15L30 25Z" fill="#3B82F6"/>
    
    <path d="M67.408 40V20.8H61.12V16H79.568V20.8H73.28V40H67.408Z" fill="#111827"/>
    <path d="M81.2844 40V16H97.4044V20.8H87.1564V25.712H96.3244V30.512H87.1564V35.2H97.6684V40H81.2844Z" fill="#111827"/>
    <path d="M100.51 40V16H106.382V35.2H116.278V40H100.51Z" fill="#111827"/>
    <path d="M118.903 40V16H124.775V35.2H134.671V40H118.903Z" fill="#111827"/>
    <path d="M142.171 40.384C140.251 40.384 138.587 40.048 137.179 39.376C135.771 38.704 134.675 37.76 133.891 36.544C133.123 35.312 132.715 33.888 132.667 32.272H139.003C139.099 33.088 139.443 33.736 140.035 34.216C140.627 34.68 141.395 34.912 142.339 34.912C143.299 34.912 144.059 34.712 144.619 34.312C145.179 33.896 145.459 33.336 145.459 32.632C145.459 32.04 145.235 31.552 144.787 31.168C144.355 30.784 143.811 30.472 143.155 30.232C142.515 29.992 141.611 29.728 140.443 29.44C138.747 29.024 137.355 28.608 136.267 28.192C135.179 27.776 134.243 27.128 133.459 26.248C132.675 25.368 132.283 24.192 132.283 22.72C132.283 20.544 133.107 18.824 134.755 17.56C136.403 16.28 138.595 15.64 141.331 15.64C144.115 15.64 146.331 16.28 147.979 17.56C149.627 18.824 150.491 20.56 150.571 22.768H144.139C144.091 22.048 143.779 21.48 143.203 21.064C142.627 20.632 141.891 20.416 140.995 20.416C140.227 20.416 139.611 20.616 139.147 21.016C138.683 21.4 138.451 21.936 138.451 22.624C138.451 23.376 138.859 23.976 139.675 24.424C140.491 24.872 141.747 25.344 143.443 25.84C145.139 26.352 146.507 26.84 147.547 27.304C148.603 27.768 149.523 28.432 150.307 29.296C151.091 30.16 151.483 31.32 151.483 32.776C151.483 34.184 151.115 35.456 150.379 36.592C149.659 37.728 148.595 38.632 147.187 39.304C145.779 40.024 144.107 40.384 142.171 40.384Z" fill="#111827"/>
    <path d="M159.647 40.384C157.727 40.384 156.063 40.048 154.655 39.376C153.247 38.704 152.151 37.76 151.367 36.544C150.599 35.312 150.191 33.888 150.143 32.272H156.479C156.575 33.088 156.919 33.736 157.511 34.216C158.103 34.68 158.871 34.912 159.815 34.912C160.775 34.912 161.535 34.712 162.095 34.312C162.655 33.896 162.935 33.336 162.935 32.632C162.935 32.04 162.711 31.552 162.263 31.168C161.831 30.784 161.287 30.472 160.631 30.232C159.991 29.992 159.087 29.728 157.919 29.44C156.223 29.024 154.831 28.608 153.743 28.192C152.655 27.776 151.719 27.128 150.935 26.248C150.151 25.368 149.759 24.192 149.759 22.72C149.759 20.544 150.583 18.824 152.231 17.56C153.879 16.28 156.071 15.64 158.807 15.64C161.591 15.64 163.807 16.28 165.455 17.56C167.103 18.824 167.967 20.56 168.047 22.768H161.615C161.567 22.048 161.255 21.48 160.679 21.064C160.103 20.632 159.367 20.416 158.471 20.416C157.703 20.416 157.087 20.616 156.623 21.016C156.159 21.4 155.927 21.936 155.927 22.624C155.927 23.376 156.335 23.976 157.151 24.424C157.967 24.872 159.223 25.344 160.919 25.84C162.615 26.352 163.983 26.84 165.023 27.304C166.079 27.768 166.999 28.432 167.783 29.296C168.567 30.16 168.959 31.32 168.959 32.776C168.959 34.184 168.591 35.456 167.855 36.592C167.135 37.728 166.071 38.632 164.663 39.304C163.255 40.024 161.583 40.384 159.647 40.384Z" fill="#111827"/>
    <path d="M171.118 40V16H177.278V40H171.118Z" fill="#111827"/>
    <path d="M190.135 40.384C188.183 40.384 186.455 40.016 184.951 39.28C183.463 38.528 182.287 37.472 181.423 36.112C180.575 34.752 180.151 33.16 180.151 31.336V30.464C180.151 28.56 180.551 26.912 181.351 25.52C182.167 24.112 183.303 23.024 184.759 22.256C186.231 21.472 187.903 21.08 189.775 21.08C191.567 21.08 193.111 21.448 194.407 22.184C195.719 22.92 196.727 23.952 197.431 25.28C198.135 26.592 198.487 28.144 198.487 29.936V32.368H186.215C186.359 33.344 186.759 34.128 187.415 34.72C188.087 35.312 188.935 35.608 189.959 35.608C191.607 35.608 192.775 35.008 193.463 33.808L197.927 36.664C197.287 37.8 196.343 38.696 195.095 39.352C193.847 40.04 192.103 40.384 190.135 40.384ZM189.727 25.856C188.063 25.856 187.055 26.816 186.703 28.736H192.583V28.256C192.599 27.392 192.375 26.728 191.911 26.264C191.447 25.992 190.663 25.856 189.727 25.856Z" fill="#111827"/>
    <path d="M206.251 40L200.395 21.464H206.731L209.563 32.8L212.395 21.464H218.107L212.251 40H206.251Z" fill="#111827"/>
    <path d="M218.948 40V16H225.108V40H218.948Z" fill="#111827"/>
    <path d="M227.973 40V21.464H234.133V40H227.973ZM231.061 19.624C229.973 19.624 229.093 19.32 228.421 18.712C227.765 18.088 227.437 17.32 227.437 16.408C227.437 15.48 227.765 14.712 228.421 14.104C229.093 13.48 229.973 13.168 231.061 13.168C232.149 13.168 233.013 13.472 233.653 14.08C234.309 14.688 234.637 15.464 234.637 16.408C234.637 17.336 234.309 18.112 233.653 18.736C233.013 19.328 232.149 19.624 231.061 19.624Z" fill="#111827"/>
    <path d="M239.18 40.384C238.092 40.384 237.188 40.024 236.468 39.304C235.764 38.568 235.412 37.688 235.412 36.664C235.412 35.576 235.756 34.688 236.444 34C237.148 33.296 238.044 32.944 239.132 32.944C240.252 32.944 241.156 33.296 241.844 34C242.548 34.688 242.9 35.576 242.9 36.664C242.9 37.688 242.54 38.568 241.82 39.304C241.116 40.024 240.22 40.384 239.18 40.384Z" fill="#111827"/>
  </g>
</svg>
